<svg width="59" height="68" viewBox="0 0 59 68" fill="none" xmlns="http://www.w3.org/2000/svg">
<path d="M29.3695 67.7436C45.5898 67.7436 58.7389 54.6968 58.7389 38.6027C58.7389 22.5085 45.5898 9.46167 29.3695 9.46167C13.1492 9.46167 0 22.5085 0 38.6027C0 54.6968 13.1492 67.7436 29.3695 67.7436Z" fill="#DDDDDD"/>
<path d="M22.2249 33.7633C23.0985 33.7633 23.8067 33.0606 23.8067 32.1938C23.8067 31.327 23.0985 30.6243 22.2249 30.6243C21.3513 30.6243 20.6431 31.327 20.6431 32.1938C20.6431 33.0606 21.3513 33.7633 22.2249 33.7633Z" fill="black"/>
<path d="M37.3577 33.7895C38.2313 33.7895 38.9396 33.0868 38.9396 32.2199C38.9396 31.3531 38.2313 30.6504 37.3577 30.6504C36.4841 30.6504 35.7759 31.3531 35.7759 32.2199C35.7759 33.0868 36.4841 33.7895 37.3577 33.7895Z" fill="black"/>
<path d="M18.824 42.1863C24.2405 42.1863 28.6314 37.8296 28.6314 32.4552C28.6314 27.0809 24.2405 22.7241 18.824 22.7241C13.4075 22.7241 9.0166 27.0809 9.0166 32.4552C9.0166 37.8296 13.4075 42.1863 18.824 42.1863Z" stroke="black" stroke-width="2" stroke-miterlimit="10"/>
<path d="M41.8396 42.605C47.2561 42.605 51.647 38.2483 51.647 32.8739C51.647 27.4996 47.2561 23.1428 41.8396 23.1428C36.4232 23.1428 32.0322 27.4996 32.0322 32.8739C32.0322 38.2483 36.4232 42.605 41.8396 42.605Z" stroke="black" stroke-width="2" stroke-miterlimit="10.0002"/>
<path d="M42.7888 21.4425C42.9206 21.4163 42.6833 21.4686 42.7888 21.4425C42.8415 21.4425 42.8679 21.4163 42.8942 21.4163C42.9733 21.4163 43.026 21.3902 43.1051 21.3902C43.2369 21.364 43.3688 21.364 43.5006 21.364C43.5533 21.364 43.527 21.364 43.5006 21.364C43.527 21.364 43.5797 21.364 43.606 21.364C43.6588 21.364 43.7379 21.364 43.7906 21.3902C43.9224 21.4163 44.0542 21.4425 44.1861 21.4686C44.2124 21.4686 44.2388 21.4948 44.2915 21.4948C44.2388 21.4948 44.2388 21.4686 44.2915 21.4948C44.3442 21.521 44.4233 21.5471 44.4761 21.5733C44.6079 21.6256 44.7133 21.6779 44.8452 21.7564C44.8715 21.7825 44.8979 21.7825 44.9242 21.8087C44.977 21.8349 44.8451 21.7564 44.9242 21.8087C44.977 21.8349 45.0297 21.8872 45.0824 21.9133C45.1879 21.9918 45.2933 22.0964 45.3988 22.1749C45.5833 22.358 45.9524 22.3057 46.0843 22.0964C46.2424 21.861 46.2161 21.5994 46.0052 21.4163C45.0561 20.5008 43.6588 20.213 42.3933 20.5269C42.1297 20.5792 41.9978 20.9455 42.1033 21.1547C42.2615 21.4425 42.5251 21.521 42.7888 21.4425Z" fill="black"/>
<path d="M15.4494 21.7041C15.5812 21.6256 15.713 21.5471 15.8449 21.4948C15.924 21.4687 15.7921 21.521 15.8712 21.4948C15.8976 21.4687 15.924 21.4687 15.9767 21.4425C16.0294 21.4163 16.1085 21.3902 16.1612 21.364C16.293 21.3117 16.4249 21.2594 16.583 21.2332C16.6621 21.2071 16.7149 21.2071 16.794 21.1809C16.8203 21.1809 16.8467 21.1548 16.8994 21.1548C16.8467 21.1548 16.9258 21.1548 16.9521 21.1548C17.5585 21.0501 18.0331 21.0763 18.6131 21.2071C18.8767 21.2594 19.1404 21.0763 19.1931 20.8147C19.2458 20.5531 19.0613 20.2915 18.7976 20.2392C17.4794 19.9514 16.0821 20.1869 14.9485 20.8932C14.7376 21.024 14.6585 21.364 14.8167 21.5733C14.9221 21.8087 15.2121 21.861 15.4494 21.7041Z" fill="black"/>
<path d="M26.3112 43.1805C25.9684 43.7037 26.7857 44.2792 27.1021 43.7298C28.4203 41.6371 32.1112 41.5586 33.4294 43.7037C33.5612 43.9391 33.8249 44.0699 34.0885 43.9391C34.3258 43.8345 34.4576 43.5206 34.3258 43.2851C32.6385 40.5646 28.0512 40.4077 26.3112 43.1805Z" fill="black"/>
<path d="M27.6759 8.75579C28.2731 5.10503 25.7744 1.6652 22.0951 1.0727C18.4157 0.480206 14.9489 2.95942 14.3517 6.61018C13.7546 10.2609 16.2532 13.7008 19.9326 14.2933C23.612 14.8858 27.0788 12.4065 27.6759 8.75579Z" fill="#DDDDDD"/>
<path d="M29.8966 13.4639C33.6241 13.4639 36.6458 10.4657 36.6458 6.76723C36.6458 3.06876 33.6241 0.0705566 29.8966 0.0705566C26.1692 0.0705566 23.1475 3.06876 23.1475 6.76723C23.1475 10.4657 26.1692 13.4639 29.8966 13.4639Z" fill="#DDDDDD"/>
<path d="M38.2804 14.5889C42.0079 14.5889 45.0296 11.5907 45.0296 7.89223C45.0296 4.19376 42.0079 1.19556 38.2804 1.19556C34.553 1.19556 31.5312 4.19376 31.5312 7.89223C31.5312 11.5907 34.553 14.5889 38.2804 14.5889Z" fill="#DDDDDD"/>
<path d="M28.394 32.9785H31.9795" stroke="black" stroke-width="2" stroke-miterlimit="10"/>
<path d="M51.7524 32.9785H55.3643" stroke="black" stroke-width="2" stroke-miterlimit="10"/>
<path d="M5.40454 32.9785H8.99004" stroke="black" stroke-width="2" stroke-miterlimit="10"/>
</svg>
