<svg width="59" height="68" viewBox="0 0 59 68" fill="none" xmlns="http://www.w3.org/2000/svg">
<path d="M29.3695 67.9846C45.5898 67.9846 58.7389 54.9377 58.7389 38.8436C58.7389 22.7495 45.5898 9.70264 29.3695 9.70264C13.1492 9.70264 0 22.7495 0 38.8436C0 54.9377 13.1492 67.9846 29.3695 67.9846Z" fill="#DDDDDD"/>
<path d="M18.824 42.4273C24.2405 42.4273 28.6314 38.0705 28.6314 32.6962C28.6314 27.3218 24.2405 22.9651 18.824 22.9651C13.4075 22.9651 9.0166 27.3218 9.0166 32.6962C9.0166 38.0705 13.4075 42.4273 18.824 42.4273Z" stroke="black" stroke-width="2" stroke-miterlimit="10"/>
<path d="M51.5091 34.6722C52.3768 29.3672 48.7459 24.3687 43.3993 23.5077C38.0527 22.6467 33.015 26.2493 32.1473 31.5543C31.2796 36.8593 34.9105 41.8579 40.2571 42.7188C45.6037 43.5798 50.6414 39.9772 51.5091 34.6722Z" stroke="black" stroke-width="2" stroke-miterlimit="10"/>
<path d="M42.7888 21.6834C42.9206 21.6573 42.6833 21.7096 42.7888 21.6834C42.8415 21.6834 42.8679 21.6573 42.8942 21.6573C42.9733 21.6573 43.026 21.6311 43.1051 21.6311C43.2369 21.605 43.3688 21.605 43.5006 21.605C43.5533 21.605 43.527 21.605 43.5006 21.605C43.527 21.605 43.5797 21.605 43.606 21.605C43.6588 21.605 43.7379 21.605 43.7906 21.6311C43.9224 21.6573 44.0542 21.6834 44.1861 21.7096C44.2124 21.7096 44.2388 21.7358 44.2915 21.7358C44.2388 21.7358 44.2388 21.7096 44.2915 21.7358C44.3442 21.7619 44.4233 21.7881 44.4761 21.8142C44.6079 21.8666 44.7133 21.9189 44.8452 21.9974C44.8715 22.0235 44.8979 22.0235 44.9242 22.0497C44.977 22.0758 44.8451 21.9973 44.9242 22.0497C44.977 22.0758 45.0297 22.1281 45.0824 22.1543C45.1879 22.2328 45.2933 22.3374 45.3988 22.4159C45.5833 22.599 45.9524 22.5467 46.0843 22.3374C46.2424 22.102 46.2161 21.8404 46.0052 21.6573C45.0561 20.7417 43.6588 20.454 42.3933 20.7679C42.1297 20.8202 41.9978 21.1864 42.1033 21.3957C42.2615 21.6834 42.5251 21.7619 42.7888 21.6834Z" fill="black"/>
<path d="M15.4494 21.9451C15.5812 21.8666 15.713 21.7881 15.8449 21.7358C15.924 21.7096 15.7921 21.7619 15.8712 21.7358C15.8976 21.7096 15.924 21.7096 15.9767 21.6835C16.0294 21.6573 16.1085 21.6311 16.1612 21.605C16.293 21.5527 16.4249 21.5004 16.583 21.4742C16.6621 21.448 16.7149 21.448 16.794 21.4219C16.8203 21.4219 16.8467 21.3957 16.8994 21.3957C16.8467 21.3957 16.9258 21.3957 16.9521 21.3957C17.5585 21.2911 18.0331 21.3172 18.6131 21.448C18.8767 21.5004 19.1404 21.3172 19.1931 21.0557C19.2458 20.7941 19.0613 20.5325 18.7976 20.4802C17.4794 20.1924 16.0821 20.4278 14.9485 21.1341C14.7376 21.2649 14.6585 21.605 14.8167 21.8143C14.9221 22.0497 15.2121 22.102 15.4494 21.9451Z" fill="black"/>
<path d="M21.0121 14.6204C24.7396 14.6204 27.7613 11.6222 27.7613 7.92372C27.7613 4.22525 24.7396 1.22705 21.0121 1.22705C17.2846 1.22705 14.2629 4.22525 14.2629 7.92372C14.2629 11.6222 17.2846 14.6204 21.0121 14.6204Z" fill="#DDDDDD"/>
<path d="M29.8966 13.7049C33.6241 13.7049 36.6458 10.7067 36.6458 7.0082C36.6458 3.30973 33.6241 0.311523 29.8966 0.311523C26.1692 0.311523 23.1475 3.30973 23.1475 7.0082C23.1475 10.7067 26.1692 13.7049 29.8966 13.7049Z" fill="#DDDDDD"/>
<path d="M39.9336 14.6256C43.5478 13.7203 45.7379 10.0793 44.8254 6.49321C43.9129 2.90718 40.2434 0.734078 36.6292 1.63946C33.0151 2.54485 30.8249 6.18587 31.7374 9.7719C32.6499 13.3579 36.3195 15.531 39.9336 14.6256Z" fill="#DDDDDD"/>
<path d="M28.394 33.2195H31.9795" stroke="black" stroke-width="2" stroke-miterlimit="10"/>
<path d="M5.40454 33.2195H8.99004" stroke="black" stroke-width="2" stroke-miterlimit="10"/>
<path d="M20.3531 31.7546C21.724 32.3824 23.0686 33.0364 24.4395 33.6642C24.6768 33.7688 24.9404 33.7165 25.0722 33.5072C25.1777 33.2979 25.1249 32.984 24.914 32.8794C23.5431 32.2516 22.1985 31.5976 20.8276 30.9698C20.5903 30.8652 20.3267 30.9175 20.1949 31.1268C20.0631 31.3099 20.1158 31.6499 20.3531 31.7546Z" fill="#231815"/>
<path d="M24.7821 32.8532C23.0421 32.5393 21.2493 32.67 19.5884 33.2979C19.3511 33.3763 19.1929 33.6118 19.272 33.8734C19.3248 34.0826 19.6148 34.2919 19.852 34.1873C21.3548 33.6118 22.9894 33.4548 24.5712 33.7426C24.8085 33.7949 25.0721 33.6641 25.1512 33.4287C25.1776 33.1932 25.0194 32.8793 24.7821 32.8532Z" fill="#231815"/>
<path d="M39.3614 30.9437C37.9904 31.5715 36.6459 32.2255 35.2749 32.8533C35.0377 32.9579 34.9849 33.2718 35.1168 33.4811C35.2486 33.7165 35.5122 33.7427 35.7495 33.638C37.1204 33.0102 38.465 32.3563 39.8359 31.7284C40.0732 31.6238 40.1259 31.3099 39.9941 31.1006C39.8359 30.8914 39.5723 30.839 39.3614 30.9437Z" fill="#231815"/>
<path d="M35.6177 33.7164C37.1995 33.4287 38.8341 33.6118 40.3368 34.1611C40.5741 34.2396 40.8377 34.0565 40.9168 33.8472C40.9959 33.5856 40.8377 33.3764 40.6005 33.2717C38.9395 32.6439 37.1468 32.5131 35.4068 32.827C35.1695 32.8794 35.0113 33.1671 35.0904 33.4025C35.1168 33.6641 35.3804 33.7688 35.6177 33.7164Z" fill="#231815"/>
<path d="M34.115 42.3489C33.8514 41.6688 33.0078 41.4856 32.5068 41.9827C31.9268 42.5582 31.1359 42.8982 30.2923 42.8982C29.3959 42.8982 28.5786 42.532 27.9986 41.9042C27.4977 41.381 26.654 41.538 26.3904 42.2181C26.1268 42.8459 26.0213 43.5522 26.1004 44.3108C26.3113 46.2989 27.8404 47.9207 29.765 48.13C32.2696 48.4177 34.405 46.4035 34.405 43.8661C34.3787 43.3429 34.2732 42.8197 34.115 42.3489Z" fill="#595959"/>
</svg>
