<svg width="28" height="28" viewBox="0 0 28 28" fill="none" xmlns="http://www.w3.org/2000/svg">
<path fill-rule="evenodd" clip-rule="evenodd" d="M11.732 20.1373C11.732 16.8578 14.9818 14.1978 18.991 14.1978C23.0002 14.1978 26.25 16.8578 26.25 20.1373V23.1263H11.732V20.1373ZM23.0317 8.92326C23.0317 6.69201 21.2222 4.88251 18.991 4.88251C16.7598 4.88251 14.9503 6.69201 14.9503 8.92326C14.9503 11.1545 16.7598 12.964 18.991 12.964C21.2222 12.964 23.0317 11.1545 23.0317 8.92326V8.92326ZM9.982 23.1263H1.75V20.1373C1.75 16.8578 5.0015 14.1978 9.01075 14.1978C10.2515 14.1978 11.403 14.4778 12.425 14.9258C10.92 16.2943 9.982 18.116 9.982 20.1373V23.1263ZM13.0498 8.92326C13.0498 6.69201 11.242 4.88251 9.009 4.88251C6.77775 4.88251 4.97 6.69201 4.97 8.92326C4.97 11.1545 6.77775 12.964 9.009 12.964C11.242 12.964 13.0498 11.1545 13.0498 8.92326V8.92326Z" fill="#919191"/>
</svg>
