<svg width="28" height="28" viewBox="0 0 28 28" fill="none" xmlns="http://www.w3.org/2000/svg">
<path fill-rule="evenodd" clip-rule="evenodd" d="M23.9753 20.9461H15.8851H14.9418L14.2768 21.6128L14.0003 21.8893V9.47655L15.6086 7.8683L16.8266 6.6503H17.5003V12.1156L19.6878 10.3656L21.8753 12.1156V6.6503H23.9753V20.9461ZM4.37531 14.9348H11.3648V12.6598H4.37531V14.9348ZM4.37531 19.8348H11.3648V17.5598H4.37531V19.8348ZM4.37531 10.0348H8.75381V7.75981H4.37531V10.0348ZM15.8851 4.37531L14.0003 6.26006L12.1156 4.37531H1.75031V5.99056V22.5683V23.2211H12.1156L14.0003 25.1058L15.8851 23.2211H26.2503V4.37531H15.8851Z" fill="#919191"/>
</svg>
