<svg width="59" height="69" viewBox="0 0 59 69" fill="none" xmlns="http://www.w3.org/2000/svg">
<path d="M29.3381 68.4445C45.5411 68.4445 58.6762 55.3094 58.6762 39.1064C58.6762 22.9034 45.5411 9.76831 29.3381 9.76831C13.1351 9.76831 0 22.9034 0 39.1064C0 55.3094 13.1351 68.4445 29.3381 68.4445Z" fill="#DDDDDD"/>
<path d="M22.2012 34.2343C23.0739 34.2343 23.7814 33.5268 23.7814 32.6541C23.7814 31.7814 23.0739 31.074 22.2012 31.074C21.3286 31.074 20.6211 31.7814 20.6211 32.6541C20.6211 33.5268 21.3286 34.2343 22.2012 34.2343Z" fill="black"/>
<path d="M37.3179 34.2606C38.1906 34.2606 38.8981 33.5532 38.8981 32.6805C38.8981 31.8078 38.1906 31.1003 37.3179 31.1003C36.4452 31.1003 35.7378 31.8078 35.7378 32.6805C35.7378 33.5532 36.4452 34.2606 37.3179 34.2606Z" fill="black"/>
<path d="M18.8038 42.7144C24.2144 42.7144 28.6007 38.3282 28.6007 32.9175C28.6007 27.5068 24.2144 23.1206 18.8038 23.1206C13.3931 23.1206 9.00684 27.5068 9.00684 32.9175C9.00684 38.3282 13.3931 42.7144 18.8038 42.7144Z" stroke="black" stroke-width="2" stroke-miterlimit="10"/>
<path d="M51.454 34.9066C52.3208 29.5657 48.6938 24.5334 43.3529 23.6666C38.012 22.7998 32.9797 26.4268 32.1129 31.7677C31.2461 37.1086 34.8731 42.1409 40.214 43.0077C45.5549 43.8745 50.5872 40.2475 51.454 34.9066Z" stroke="black" stroke-width="2" stroke-miterlimit="10"/>
<path d="M42.7431 21.8301C42.8747 21.8038 42.6377 21.8564 42.7431 21.8301C42.7957 21.8301 42.8221 21.8038 42.8484 21.8038C42.9274 21.8038 42.9801 21.7774 43.0591 21.7774C43.1908 21.7511 43.3225 21.7511 43.4541 21.7511C43.5068 21.7511 43.4805 21.7511 43.4541 21.7511C43.4805 21.7511 43.5331 21.7511 43.5595 21.7511C43.6121 21.7511 43.6912 21.7511 43.7438 21.7774C43.8755 21.8038 44.0072 21.8301 44.1389 21.8564C44.1652 21.8564 44.1915 21.8828 44.2442 21.8828C44.1915 21.8828 44.1915 21.8564 44.2442 21.8828C44.2969 21.9091 44.3759 21.9355 44.4286 21.9618C44.5602 22.0145 44.6656 22.0671 44.7973 22.1461C44.8236 22.1725 44.8499 22.1725 44.8763 22.1988C44.9289 22.2251 44.7973 22.1461 44.8763 22.1988C44.9289 22.2251 44.9816 22.2778 45.0343 22.3042C45.1396 22.3832 45.245 22.4885 45.3503 22.5675C45.5347 22.7519 45.9034 22.6992 46.035 22.4885C46.1931 22.2515 46.1667 21.9881 45.956 21.8038C45.0079 20.882 43.6121 20.5923 42.348 20.9084C42.0847 20.961 41.953 21.3297 42.0583 21.5404C42.2164 21.8301 42.4797 21.9091 42.7431 21.8301Z" fill="black"/>
<path d="M15.4328 22.0935C15.5644 22.0145 15.6961 21.9355 15.8278 21.8828C15.9068 21.8564 15.7751 21.9091 15.8541 21.8828C15.8805 21.8564 15.9068 21.8564 15.9595 21.8301C16.0122 21.8038 16.0912 21.7774 16.1438 21.7511C16.2755 21.6984 16.4072 21.6458 16.5652 21.6194C16.6442 21.5931 16.6969 21.5931 16.7759 21.5668C16.8022 21.5668 16.8286 21.5404 16.8812 21.5404C16.8286 21.5404 16.9076 21.5404 16.9339 21.5404C17.5396 21.4351 18.0137 21.4614 18.5931 21.5931C18.8564 21.6458 19.1198 21.4614 19.1725 21.1981C19.2251 20.9347 19.0408 20.6713 18.7774 20.6187C17.4606 20.329 16.0648 20.566 14.9324 21.2771C14.7217 21.4087 14.6427 21.7511 14.8007 21.9618C14.906 22.1988 15.1957 22.2515 15.4328 22.0935Z" fill="black"/>
<path d="M26.2832 42.53C28.0214 45.3216 32.6038 45.1636 34.2893 42.4247C34.421 42.1877 34.2893 41.8716 34.0523 41.7663C33.7889 41.6346 33.5256 41.7663 33.3939 42.0033C32.0771 44.1628 28.3901 44.0838 27.0733 41.977C26.7573 41.4239 25.9409 42.0033 26.2832 42.53Z" fill="black"/>
<path d="M20.9898 14.7193C24.7133 14.7193 27.7317 11.7008 27.7317 7.97732C27.7317 4.25383 24.7133 1.23535 20.9898 1.23535C17.2663 1.23535 14.2478 4.25383 14.2478 7.97732C14.2478 11.7008 17.2663 14.7193 20.9898 14.7193Z" fill="#DDDDDD"/>
<path d="M29.8648 13.7977C33.5883 13.7977 36.6067 10.7792 36.6067 7.05569C36.6067 3.3322 33.5883 0.313721 29.8648 0.313721C26.1413 0.313721 23.1228 3.3322 23.1228 7.05569C23.1228 10.7792 26.1413 13.7977 29.8648 13.7977Z" fill="#DDDDDD"/>
<path d="M39.8909 14.7244C43.5011 13.8129 45.6889 10.1472 44.7774 6.53693C43.8659 2.92664 40.2003 0.738839 36.59 1.65035C32.9797 2.56186 30.7919 6.2275 31.7034 9.83779C32.6149 13.4481 36.2806 15.6359 39.8909 14.7244Z" fill="#DDDDDD"/>
<path d="M28.3638 33.4441H31.9454" stroke="black" stroke-width="2" stroke-miterlimit="10"/>
<path d="M5.39893 33.4441H8.9806" stroke="black" stroke-width="2" stroke-miterlimit="10"/>
</svg>
