<svg width="406" height="121" viewBox="0 0 406 121" fill="none" xmlns="http://www.w3.org/2000/svg">
<g clip-path="url(#clip0_142_428)">
<rect width="406" height="121" fill="white"/>
<rect x="-19" y="-2" width="522" height="123" rx="30" fill="url(#paint0_linear_142_428)"/>
<g clip-path="url(#clip1_142_428)">
<path d="M329.081 110.686C353.639 110.686 373.547 90.7361 373.547 66.1261C373.547 41.516 353.639 21.5657 329.081 21.5657C304.523 21.5657 284.614 41.516 284.614 66.1261C284.614 90.7361 304.523 110.686 329.081 110.686Z" fill="#1D7025"/>
<path d="M325.892 108.727C350.45 108.727 370.358 88.7762 370.358 64.1662C370.358 39.5562 350.45 19.6058 325.892 19.6058C301.334 19.6058 281.425 39.5562 281.425 64.1662C281.425 88.7762 301.334 108.727 325.892 108.727Z" fill="#359C3A"/>
<path d="M302.922 116.362C301.222 115.874 299.334 115.39 297.801 116.554C296.955 117.194 296.62 118.37 297.159 119.282C297.682 120.166 298.692 120.25 299.606 120.294C304.674 120.542 309.747 120.722 314.824 120.834C315.279 120.846 315.75 120.85 316.161 120.654C317.251 120.138 317.287 118.63 317.203 117.426C316.72 110.378 317.718 103.231 320.105 96.5836C320.639 95.0997 321.254 93.4718 319.582 92.012C318.867 91.388 317.973 91.016 317.035 90.8761C314.046 90.4201 310.821 90.1401 307.971 91.26C305.477 92.2399 303.337 94.5158 303.218 97.1995" fill="#359C3A"/>
<path d="M310.609 95.1317C311.679 95.0877 310.514 97.9635 310.378 98.4234C309.915 100.007 309.504 101.607 309.197 103.231C308.578 106.507 308.39 109.835 309.001 113.13C309.101 113.662 309.739 113.962 310.23 113.83C310.785 113.678 311.025 113.134 310.929 112.598C310.282 109.107 310.681 105.519 311.48 102.087C311.883 100.355 312.485 98.6794 312.9 96.9555C313.108 96.0956 313.148 95.1517 312.689 94.3598C312.258 93.6198 311.484 93.0999 310.613 93.1359C309.332 93.1878 309.324 95.1877 310.609 95.1317Z" fill="#359C3A"/>
<path d="M327.025 96.3996C327.185 102.875 327.341 109.351 327.5 115.826C327.528 116.894 327.552 117.966 327.62 119.03C327.708 120.418 328.837 121.502 330.222 121.59C335.311 121.906 340.436 121.434 345.521 120.958C346.247 120.89 347.03 120.802 347.445 120.05C347.792 119.422 347.688 118.646 347.277 118.058C346.582 117.062 345.345 116.75 344.18 116.63C343.629 116.574 342.994 116.502 342.699 116.034C342.547 115.794 342.523 115.502 342.503 115.218C342.104 109.603 341.705 103.987 341.306 98.3715C341.246 97.5555 341.178 96.7036 340.771 95.9957C340.232 95.0637 339.203 94.5398 338.205 94.1358C336.03 93.2519 333.731 92.6839 331.392 92.4679C330.334 92.3679 329.252 92.3519 328.235 92.6559C327.796 92.7879 327.341 93.0079 327.133 93.4159C326.977 93.7158 326.981 94.0718 326.989 94.4078C327.013 95.5317 327.037 96.6556 327.065 97.7795" fill="#359C3A"/>
<path d="M298.923 54.567C300.237 54.567 301.302 53.4997 301.302 52.1832C301.302 50.8666 300.237 49.7994 298.923 49.7994C297.609 49.7994 296.544 50.8666 296.544 52.1832C296.544 53.4997 297.609 54.567 298.923 54.567Z" fill="black"/>
<path d="M320.683 56.3349C321.997 56.3349 323.062 55.2676 323.062 53.9511C323.062 52.6345 321.997 51.5673 320.683 51.5673C319.369 51.5673 318.304 52.6345 318.304 53.9511C318.304 55.2676 319.369 56.3349 320.683 56.3349Z" fill="black"/>
<path d="M293.77 67.4539C301.968 67.4539 308.614 60.7943 308.614 52.5791C308.614 44.364 301.968 37.7043 293.77 37.7043C285.572 37.7043 278.927 44.364 278.927 52.5791C278.927 60.7943 285.572 67.4539 293.77 67.4539Z" stroke="black" stroke-width="2" stroke-miterlimit="10"/>
<path d="M327.041 70.7217C335.239 70.7217 341.885 64.062 341.885 55.8469C341.885 47.6318 335.239 40.9721 327.041 40.9721C318.843 40.9721 312.198 47.6318 312.198 55.8469C312.198 64.062 318.843 70.7217 327.041 70.7217Z" stroke="black" stroke-width="2" stroke-miterlimit="10"/>
<path d="M278.875 51.3553L275.071 51.0753" stroke="black" stroke-width="2" stroke-miterlimit="10"/>
<path d="M312.697 53.8791L308.127 53.5431" stroke="black" stroke-width="2" stroke-miterlimit="10"/>
<path d="M347.644 56.5989L341.621 56.1549" stroke="black" stroke-width="2" stroke-miterlimit="10"/>
<path d="M336.333 39.4082C336.533 39.4282 336.169 39.3802 336.365 39.4122C336.405 39.4202 336.441 39.4242 336.481 39.4322C336.584 39.4522 336.692 39.4722 336.796 39.5002C336.996 39.5522 337.187 39.6162 337.383 39.6882C337.463 39.7162 337.423 39.7042 337.367 39.6802C337.419 39.7042 337.475 39.7282 337.526 39.7522C337.614 39.7922 337.702 39.8362 337.786 39.8842C337.965 39.9842 338.141 40.0922 338.309 40.2122C338.349 40.2402 338.389 40.2682 338.428 40.3002C338.349 40.2402 338.377 40.2602 338.44 40.3082C338.516 40.3682 338.592 40.4322 338.664 40.5002C338.816 40.6401 338.959 40.7881 339.091 40.9441C339.123 40.9801 339.151 41.0201 339.183 41.0561C339.243 41.1241 339.107 40.9521 339.191 41.0681C339.247 41.1481 339.307 41.2281 339.358 41.3081C339.474 41.4881 339.578 41.6761 339.674 41.872C339.845 42.228 340.376 42.348 340.699 42.14C341.063 41.904 341.15 41.4921 340.967 41.1121C340.105 39.3123 338.293 38.1283 336.337 37.9124C335.946 37.8684 335.571 38.2883 335.587 38.6643C335.603 39.1043 335.914 39.3642 336.333 39.4082Z" fill="black"/>
<path d="M299.837 35.5006C300.06 35.5086 300.28 35.5206 300.503 35.5486C300.635 35.5646 300.408 35.5326 300.539 35.5526C300.591 35.5606 300.643 35.5686 300.695 35.5806C300.799 35.6006 300.899 35.6206 301.002 35.6446C301.218 35.6926 301.433 35.7525 301.645 35.8245C301.745 35.8565 301.845 35.8925 301.94 35.9285C301.988 35.9485 302.036 35.9645 302.088 35.9845C302 35.9485 302.132 36.0045 302.16 36.0165C302.99 36.3925 303.597 36.8245 304.199 37.4604C304.479 37.7524 304.978 37.7404 305.257 37.4604C305.548 37.1684 305.536 36.6925 305.257 36.4005C303.852 34.9206 301.876 34.0567 299.841 33.9967C299.45 33.9847 299.075 34.3487 299.091 34.7486C299.107 35.1686 299.418 35.4886 299.837 35.5006Z" fill="black"/>
<path d="M303.333 70.2217C305.616 74.6694 312.545 75.0414 315.447 71.0857C315.686 70.7577 315.499 70.2537 315.179 70.0578C314.8 69.8298 314.393 70.0018 314.154 70.3257C311.871 73.4375 306.347 72.8175 304.622 69.4618C304.183 68.6059 302.894 69.3658 303.333 70.2217Z" fill="black"/>
<path d="M311.998 106.347C318.005 108.799 324.627 109.579 331.044 108.671C332.88 108.411 334.692 108.007 336.465 107.467C337.079 107.279 336.816 106.315 336.201 106.503C330.114 108.355 323.565 108.543 317.378 107.043C315.634 106.619 313.926 106.063 312.266 105.383C311.671 105.139 311.411 106.107 311.998 106.347Z" fill="black"/>
<path d="M317.011 107.243C316.592 107.375 316.512 107.739 316.473 108.123C316.441 108.451 316.409 108.775 316.381 109.103C316.325 109.759 316.281 110.414 316.245 111.07C316.233 111.33 316.485 111.582 316.744 111.57C317.027 111.558 317.227 111.35 317.243 111.07C317.271 110.522 317.307 109.979 317.351 109.431C317.371 109.171 317.395 108.907 317.418 108.647C317.43 108.515 317.442 108.387 317.454 108.255C317.462 108.179 317.466 108.103 317.478 108.027C317.482 107.979 317.482 107.983 317.478 108.039C317.522 107.903 317.454 107.959 317.275 108.207C317.53 108.127 317.698 107.859 317.622 107.591C317.554 107.335 317.267 107.163 317.011 107.243Z" fill="black"/>
<path d="M313.802 106.819C315.139 107.827 316.037 109.399 316.225 111.062C316.261 111.378 316.76 111.382 316.724 111.062C316.516 109.203 315.551 107.511 314.058 106.387C313.798 106.195 313.547 106.627 313.802 106.819Z" fill="black"/>
<path d="M316.64 109.95C316.612 109.339 316.584 108.731 316.552 108.119C316.544 107.971 316.54 107.823 316.532 107.675C316.524 107.523 316.488 107.379 316.349 107.295C316.229 107.219 316.057 107.191 315.922 107.151C315.774 107.107 315.622 107.071 315.475 107.031C315.351 106.999 315.191 107.071 315.167 107.207C315.104 107.567 315.347 107.819 315.527 108.099C315.698 108.371 315.85 108.655 315.978 108.947C316.093 109.207 316.516 109.023 316.433 108.755C316.305 108.327 316.181 107.895 316.069 107.463C315.966 107.567 315.866 107.667 315.762 107.771C315.874 107.815 315.978 107.875 316.069 107.955C316.173 108.043 316.321 108.055 316.421 107.955C316.508 107.867 316.524 107.691 316.421 107.603C316.261 107.467 316.089 107.367 315.894 107.291C315.71 107.219 315.543 107.427 315.586 107.599C315.698 108.031 315.818 108.463 315.95 108.891C316.101 108.827 316.253 108.763 316.405 108.699C316.293 108.451 316.169 108.207 316.03 107.975C315.962 107.867 315.894 107.759 315.822 107.651C315.774 107.583 315.63 107.435 315.646 107.343C315.543 107.403 315.443 107.459 315.339 107.519C315.395 107.535 316.077 107.739 316.081 107.727C316.033 107.635 316.018 107.627 316.03 107.707C316.03 107.743 316.033 107.775 316.033 107.811C316.037 107.879 316.041 107.951 316.041 108.019C316.045 108.143 316.053 108.263 316.057 108.387C316.081 108.911 316.105 109.435 316.133 109.958C316.153 110.27 316.652 110.27 316.64 109.95Z" fill="black"/>
<path d="M327.289 108.895C327.365 110.311 327.444 111.726 327.52 113.142C327.536 113.462 328.035 113.466 328.019 113.142C327.943 111.726 327.863 110.311 327.788 108.895C327.768 108.575 327.269 108.575 327.289 108.895Z" fill="black"/>
<path d="M327.987 113.25C328.115 112.022 328.49 110.59 329.56 109.855C330.087 109.495 330.685 109.227 331.264 108.971C331.903 108.691 332.553 108.451 333.216 108.239C333.519 108.143 333.391 107.659 333.084 107.755C332.378 107.979 331.687 108.239 331.013 108.535C330.35 108.827 329.664 109.131 329.093 109.579C328.007 110.431 327.624 111.938 327.488 113.246C327.456 113.57 327.955 113.57 327.987 113.25Z" fill="black"/>
<path d="M327.692 109.115C327.852 109.731 327.908 110.358 327.872 110.99C328.035 110.966 328.199 110.946 328.363 110.922C328.251 110.502 328.359 110.07 328.466 109.663C328.49 109.579 328.506 109.491 328.542 109.415C328.586 109.331 328.662 109.271 328.706 109.187C328.81 108.975 328.71 108.735 328.49 108.659C328.351 108.611 328.231 108.715 328.183 108.835C328.127 108.975 328.099 109.115 328.083 109.263C328.063 109.467 328.307 109.551 328.458 109.479C328.598 109.411 328.73 109.339 328.857 109.251C328.734 109.179 328.606 109.107 328.482 109.035C328.514 109.379 328.402 109.703 328.155 109.943C328.295 110.023 328.434 110.106 328.57 110.186C328.794 109.379 329.755 109.179 330.458 109.031C330.394 108.879 330.33 108.727 330.266 108.575C329.839 108.791 329.344 108.843 328.885 108.723C328.726 108.683 328.574 108.799 328.57 108.963C328.566 109.087 328.602 109.195 328.654 109.311C328.678 109.363 328.718 109.431 328.706 109.487C328.694 109.551 328.598 109.619 328.55 109.659C328.47 109.731 328.386 109.795 328.307 109.871C327.987 110.186 327.752 110.574 327.604 110.998C327.512 111.262 327.947 111.45 328.059 111.19C328.39 110.426 328.893 109.759 329.536 109.235C329.64 109.151 329.624 108.971 329.536 108.883C329.432 108.779 329.288 108.799 329.185 108.883C328.514 109.431 327.975 110.142 327.628 110.942C327.78 111.006 327.931 111.07 328.083 111.134C328.223 110.722 328.478 110.366 328.81 110.091C328.973 109.955 329.145 109.807 329.189 109.583C329.213 109.463 329.193 109.343 329.153 109.231C329.121 109.147 329.065 109.063 329.069 108.971C328.965 109.051 328.857 109.131 328.754 109.211C329.348 109.363 329.971 109.291 330.522 109.015C330.785 108.883 330.594 108.503 330.33 108.559C329.432 108.747 328.371 109.063 328.091 110.062C328.023 110.306 328.331 110.478 328.506 110.306C328.841 109.983 329.021 109.511 328.981 109.047C328.965 108.871 328.778 108.719 328.606 108.831C328.478 108.915 328.343 108.991 328.207 109.059C328.331 109.131 328.458 109.203 328.582 109.275C328.594 109.171 328.626 109.071 328.666 108.979C328.562 109.039 328.462 109.095 328.359 109.155C328.367 109.159 328.374 109.159 328.382 109.163C328.347 109.143 328.311 109.119 328.271 109.099C328.227 109.063 328.283 108.987 328.243 108.995C328.219 108.999 328.167 109.083 328.151 109.107C328.099 109.183 328.063 109.267 328.031 109.351C327.971 109.527 327.927 109.715 327.888 109.895C327.804 110.282 327.768 110.678 327.872 111.066C327.947 111.346 328.347 111.274 328.363 110.998C328.402 110.322 328.331 109.643 328.163 108.987C328.095 108.671 327.612 108.803 327.692 109.115Z" fill="black"/>
<path d="M317.271 109.039C320.555 109.975 323.956 110.494 327.369 110.59C328.654 110.626 328.654 108.627 327.369 108.591C324.124 108.499 320.923 108.003 317.802 107.111C316.564 106.755 316.033 108.687 317.271 109.039Z" fill="black"/>
<path d="M335.97 25.1174C341.615 25.1174 346.191 20.5314 346.191 14.8742C346.191 9.21706 341.615 4.63104 335.97 4.63104C330.324 4.63104 325.748 9.21706 325.748 14.8742C325.748 20.5314 330.324 25.1174 335.97 25.1174Z" fill="#359C3A"/>
<path d="M348.538 30.093C354.183 30.093 358.76 25.5069 358.76 19.8498C358.76 14.1927 354.183 9.60663 348.538 9.60663C342.893 9.60663 338.317 14.1927 338.317 19.8498C338.317 25.5069 342.893 30.093 348.538 30.093Z" fill="#359C3A"/>
<path d="M359.019 37.4564C364.664 37.4564 369.241 32.8703 369.241 27.2132C369.241 21.5561 364.664 16.97 359.019 16.97C353.374 16.97 348.798 21.5561 348.798 27.2132C348.798 32.8703 353.374 37.4564 359.019 37.4564Z" fill="#359C3A"/>
<circle cx="267" cy="103" r="3" fill="#9ED5A2"/>
<circle cx="382" cy="83" r="3" fill="#9ED5A2"/>
</g>
<circle cx="239.5" cy="46.5" r="4.5" fill="#9ED5A2"/>
</g>
<defs>
<linearGradient id="paint0_linear_142_428" x1="242" y1="-2" x2="242" y2="121" gradientUnits="userSpaceOnUse">
<stop stop-color="#F9F9F9"/>
<stop offset="1" stop-color="#D3EBD4" stop-opacity="0.75"/>
</linearGradient>
<clipPath id="clip0_142_428">
<rect width="406" height="121" fill="white"/>
</clipPath>
<clipPath id="clip1_142_428">
<rect width="168" height="148" fill="white" transform="translate(218 -6)"/>
</clipPath>
</defs>
</svg>
