<svg width="18" height="25" viewBox="0 0 18 25" fill="none" xmlns="http://www.w3.org/2000/svg">
<path d="M0 7.93465C0 12.3161 3.55316 15.8693 7.93465 15.8693V0C3.55316 0 0 3.55316 0 7.93465Z" fill="url(#paint0_linear_67_33)"/>
<path d="M9.50818 8.57748V24.4468C13.8897 24.4468 17.4428 20.8936 17.4428 16.5121C17.4428 12.1307 13.8897 8.57748 9.50818 8.57748Z" fill="url(#paint1_linear_67_33)"/>
<path d="M3.96896 24.45C5.97724 24.45 7.60527 22.8219 7.60527 20.8137C7.60527 18.8054 5.97724 17.1773 3.96896 17.1773C1.96067 17.1773 0.332642 18.8054 0.332642 20.8137C0.332642 22.8219 1.96067 24.45 3.96896 24.45Z" fill="url(#paint2_linear_67_33)"/>
<path d="M13.1445 7.27263C15.1528 7.27263 16.7808 5.6446 16.7808 3.63631C16.7808 1.62803 15.1528 0 13.1445 0C11.1362 0 9.50818 1.62803 9.50818 3.63631C9.50818 5.6446 11.1362 7.27263 13.1445 7.27263Z" fill="url(#paint3_linear_67_33)"/>
<defs>
<linearGradient id="paint0_linear_67_33" x1="1.50247" y1="3.14591" x2="11.081" y2="12.7245" gradientUnits="userSpaceOnUse">
<stop offset="8.07343e-08" stop-color="#22AC38"/>
<stop offset="0.1346" stop-color="#36AE37"/>
<stop offset="0.3193" stop-color="#59B431"/>
<stop offset="0.533" stop-color="#81BF25"/>
<stop offset="0.7666" stop-color="#AFCF00"/>
<stop offset="1" stop-color="#DAE000"/>
</linearGradient>
<linearGradient id="paint1_linear_67_33" x1="13.4755" y1="24.4488" x2="13.4755" y2="8.57857" gradientUnits="userSpaceOnUse">
<stop offset="8.07343e-08" stop-color="#22AC38"/>
<stop offset="0.1346" stop-color="#36AE37"/>
<stop offset="0.3193" stop-color="#59B431"/>
<stop offset="0.533" stop-color="#81BF25"/>
<stop offset="0.7666" stop-color="#AFCF00"/>
<stop offset="1" stop-color="#DAE000"/>
</linearGradient>
<linearGradient id="paint2_linear_67_33" x1="6.53836" y1="23.384" x2="1.3969" y2="18.2425" gradientUnits="userSpaceOnUse">
<stop offset="8.07343e-08" stop-color="#22AC38"/>
<stop offset="0.1346" stop-color="#36AE37"/>
<stop offset="0.3193" stop-color="#59B431"/>
<stop offset="0.533" stop-color="#81BF25"/>
<stop offset="0.7666" stop-color="#AFCF00"/>
<stop offset="1" stop-color="#DAE000"/>
</linearGradient>
<linearGradient id="paint3_linear_67_33" x1="9.99446" y1="5.4537" x2="16.2925" y2="1.81752" gradientUnits="userSpaceOnUse">
<stop offset="8.07343e-08" stop-color="#22AC38"/>
<stop offset="0.1346" stop-color="#36AE37"/>
<stop offset="0.3193" stop-color="#59B431"/>
<stop offset="0.533" stop-color="#81BF25"/>
<stop offset="0.7666" stop-color="#AFCF00"/>
<stop offset="1" stop-color="#DAE000"/>
</linearGradient>
</defs>
</svg>
