<svg width="20" height="20" viewBox="0 0 20 20" fill="none" xmlns="http://www.w3.org/2000/svg">
<path fill-rule="evenodd" clip-rule="evenodd" d="M8.4375 13.3752C5.715 13.3752 3.5 11.1602 3.5 8.43774C3.5 5.71524 5.715 3.50024 8.4375 3.50024C11.16 3.50024 13.375 5.71524 13.375 8.43774C13.375 11.1602 11.16 13.3752 8.4375 13.3752ZM15 8.43774C15 4.81274 12.0612 1.87524 8.4375 1.87524C4.81375 1.87524 1.875 4.81274 1.875 8.43774C1.875 12.0615 4.81375 15.0002 8.4375 15.0002C9.95625 15.0002 11.3363 14.4627 12.4475 13.5977L16.9263 18.0752L18.0737 16.9252L13.5975 12.449C14.4625 11.3365 15 9.95649 15 8.43774Z" fill="#858899"/>
</svg>
