<svg width="21" height="21" viewBox="0 0 21 21" fill="none" xmlns="http://www.w3.org/2000/svg">
<path fill-rule="evenodd" clip-rule="evenodd" d="M7.04725 6.3875H13.9527V4.1125H7.04725V6.3875ZM7.04725 11.6375H13.9527V9.3625H7.04725V11.6375ZM7.04725 16.8875H13.9527V14.6125H7.04725V16.8875ZM3.02225 6.3875H5.29725V4.1125H3.02225V6.3875ZM3.02225 11.6375H5.29725V9.3625H3.02225V11.6375ZM3.02225 16.8875H5.29725V14.6125H3.02225V16.8875ZM0 21H16.975V0H0V21ZM19.8625 21V21L21 19.8625V4.025H18.725V19.8625L19.8625 21ZM18.725 2.275H21V0H18.725V2.275Z" fill="#919191"/>
</svg>
